# xmcd
#
# Track frame offsets: 
#        150
#        12090
#        23614
#        33922
#        46884
#        59331
#        70939
#        83192
#        95407
#        106406
#        117421
#        126986
#        138566
#        150969
#        161635
#        172826
#        185402
#        198081
#        210393
#        220903
#        230991
#        241961
#        253375
#        265807
#        277474
#
# Disc length: 3849 seconds
#
# Revision: 1
# Processed by: cddbd v1.5.2PL0 Copyright (c) Steve Scherf et al.
# Submitted via: ExactAudioCopyFreeDBPlugin 1.0
#
DISCID=650f0719
DTITLE=Various Artist - The Best of Doo Wop [Real Gone Music]
DYEAR=2017
DGENRE=Rhythm and Blues
TTITLE0=The Del-Vikings - Come Go with Me
TTITLE1=The Cookies - In Paradise
TTITLE2=The Dubs - Could This Be Magic
TTITLE3=The Cellos - Rang Tang Ding Dong (I Am the Japanese Sandman)
TTITLE4=The Five Satins - To the Aisle
TTITLE5=The Solitaires - Walking Along
TTITLE6=The Pastels - Been So Long
TTITLE7=The Charts - Deserie
TTITLE8=The Charts - Zoop
TTITLE9=The Del-Vikings - Whispering Bells
TTITLE10=The Diamonds - Little Darlin'
TTITLE11=Danny and The Juniors - At the Hop
TTITLE12=The Rays - Silhouettes
TTITLE13=Lee Andrews and The Hearts - Teardrops
TTITLE14=Little Joe Cook and The Thrillers - Peanuts
TTITLE15=The Silhouettes - Get a Job
TTITLE16=The Chantels - Maybe
TTITLE17=The "5" Royales - Dedicated to the One I Love
TTITLE18=The Monotones - Book of Love
TTITLE19=The Bobbettes - Mr. Lee
TTITLE20=The Shells - Baby Oh Baby
TTITLE21=The Mello-Kings - Tonite, Tonite
TTITLE22=The El Torros - Dance with Me
TTITLE23=The Dells - Why Do You Have to Go
TTITLE24=The Valentines - Don't Say Goodnight
EXTD=
EXTT0=
EXTT1=
EXTT2=
EXTT3=
EXTT4=
EXTT5=
EXTT6=
EXTT7=
EXTT8=
EXTT9=
EXTT10=
EXTT11=
EXTT12=
EXTT13=
EXTT14=
EXTT15=
EXTT16=
EXTT17=
EXTT18=
EXTT19=
EXTT20=
EXTT21=
EXTT22=
EXTT23=
EXTT24=
PLAYORDER=
